<svg width="92" height="62" viewBox="0 0 92 62" fill="none" xmlns="http://www.w3.org/2000/svg">
<path d="M54.5391 20.4354L56.9679 21.6482C59.0655 19.8657 61.6231 18.7081 64.3463 18.267L63.8495 15.8047C60.3535 16.3927 57.1151 18.0098 54.5391 20.4354Z" fill="#EF484E"/>
<path d="M43.0332 4.30176C45.6341 3.67652 48.4878 3.76959 51.0127 4.6123L51.0645 4.50781L62.6416 10.1953C63.7773 10.0152 64.9273 9.92481 66.0771 9.9248C71.9765 9.9248 77.6103 12.3348 81.6396 16.5586L82.0244 16.9727L82.0254 16.9736C89.8286 25.6566 89.0245 38.9073 80.2002 46.585C71.5003 54.1543 58.2913 53.4713 50.4482 45.1338L38.7656 54.3994L38.7598 54.4043L38.7529 54.4092C36.4425 56.1224 33.782 57.3574 30.9717 58.0322L30.9707 58.0312C30.9018 58.0498 30.8362 58.0646 30.7861 58.0752C30.7265 58.0878 30.6851 58.0966 30.6465 58.1074L30.6367 58.1104L30.626 58.1133C29.9155 58.2797 29.1759 58.3946 28.46 58.4766L28.4463 58.4785H28.4326L25.9971 58.624L25.9834 58.625H25.9688C15.0638 58.6415 5.86923 50.5433 4.72949 39.8447L4.67871 39.3047C3.75621 27.9995 12.1683 17.9933 23.6943 16.8105L23.7012 16.8096C24.4432 16.7447 25.1951 16.6953 25.9678 16.6953H25.9844C29.3526 16.6953 32.4117 17.3331 35.2168 18.6768C34.1112 15.7727 34.2542 12.5181 35.6709 9.70117C37.0947 6.84947 39.9131 5.05181 43.0332 4.30176ZM25.9678 19.8818C25.3263 19.8978 24.6745 19.9291 24.042 19.9912L24.043 19.9922C14.9081 20.963 7.98054 28.5239 7.91699 37.543C7.87002 47.3398 15.8886 55.3517 25.8623 55.4199L28.1025 55.2949C37.2049 54.2288 44.051 46.6382 44.0352 37.6367V37.6357C44.0351 27.8365 35.9479 19.8828 25.9678 19.8828V19.8818ZM60.6602 13.9355C56.3802 15.2602 52.7468 18.1125 50.4902 21.9209L50.2568 22.3135L49.8447 22.1172L47.8184 21.1523L47.8164 21.1514L46.3125 20.4277L46.3086 20.4258C45.5193 20.0375 44.5758 20.3054 44.127 21.0293L44.125 21.0322C43.6399 21.8035 43.8699 22.802 44.6514 23.2881L55.3408 28.4707C56.0025 27.3181 56.8679 26.3145 57.9238 25.4863V25.4854C62.4355 21.9577 68.9734 22.682 72.5625 27.126C76.1543 31.5735 75.4143 38.0191 70.8965 41.5518C66.5148 44.9779 60.2255 44.3774 56.5791 40.2881L53.002 43.126C56.3977 46.653 61.1173 48.6504 66.0771 48.6504C68.2904 48.6504 70.501 48.2588 72.5654 47.4619L72.5693 47.4609C81.8146 43.9777 86.4646 33.8121 83.0205 24.6982L60.6602 13.9355ZM43.96 26.4258C47.4925 31.9084 48.2532 38.6923 46.0107 44.7959L59.5391 33.7148L43.96 26.4258Z" fill="#EF484E" stroke="#EF484E"/>
</svg>
