<svg width="99" height="40" viewBox="0 0 99 40" fill="none" xmlns="http://www.w3.org/2000/svg">
<path d="M10.1507 0V39.3316H0V0H10.1507ZM31.832 0L29.486 18.3876L28.0447 8.393C27.6153 5.1898 27.2167 2.387 26.818 0H13.6467V39.3316H22.5553L22.6013 13.3672L26.3427 39.3316H32.6907L36.2633 12.7974V39.3316H45.172V0H31.878H31.832ZM48.5913 39.3316V0H56.166C61.088 0 63.9247 0.231 65.6573 0.693C67.39 1.155 68.7087 1.8942 69.598 2.926C70.518 3.9578 71.0853 5.1128 71.3 6.3756C71.5147 7.6538 71.668 10.1486 71.668 13.8754V27.6738C71.668 31.2004 71.484 33.572 71.1313 34.7424C70.8093 35.9282 70.2267 36.8522 69.3987 37.5298C68.586 38.2228 67.5587 38.6694 66.3627 38.9466C65.1513 39.2084 63.3267 39.347 60.8887 39.347H48.5607L48.5913 39.3316ZM58.742 6.7298V32.5402C60.1987 32.5402 61.1033 32.2476 61.4407 31.6624C61.778 31.0772 61.962 29.4756 61.962 26.8422V11.6116C61.962 9.8406 61.9007 8.701 61.7933 8.1928C61.686 7.6846 61.41 7.315 61.0113 7.084C60.6127 6.8376 59.846 6.7298 58.7573 6.7298H58.742ZM84.9313 0V12.7974C85.744 11.858 86.664 11.165 87.6453 10.703C88.6573 10.2256 90.1447 9.9946 91.31 9.9946C92.4753 9.9946 93.8247 10.2102 94.8213 10.626C95.8027 11.0418 96.554 11.6424 97.0753 12.397C97.5813 13.167 97.9033 13.9062 98.0107 14.63C98.118 15.3538 98.164 16.8938 98.164 19.2808V30.3226C98.164 32.6634 98.0107 34.419 97.6887 35.5894C97.382 36.729 96.646 37.7454 95.4653 38.577C94.3 39.4394 92.9047 39.8552 91.31 39.8552C89.7153 39.8552 88.6727 39.6088 87.6607 39.116C86.6487 38.5924 85.744 37.8532 84.9313 36.8522L84.2873 39.347H75.1333V0H84.9313ZM88.366 19.712C88.366 18.0488 88.2587 16.9708 88.044 16.4472C87.8293 15.9544 87.0013 15.6772 86.3727 15.6772C85.744 15.6772 85.3913 15.9082 85.192 16.3394C85.0233 16.8014 84.9313 17.9102 84.9313 19.6966V30.0916C84.9313 31.8318 85.0387 32.9252 85.238 33.4026C85.4527 33.8954 85.8513 34.1264 86.4493 34.1264C87.0473 34.1264 87.8907 33.88 88.09 33.3872C88.274 32.8944 88.3813 31.6778 88.3813 29.7836V19.6966L88.366 19.712Z" fill="#EF484E"/>
</svg>
