<svg width="46" height="39" viewBox="0 0 46 39" fill="none" xmlns="http://www.w3.org/2000/svg">
<path d="M45.9776 9.02187C46.2508 3.14844 44.0213 0.143871 39.295 0.00815089C32.92 -0.19309 28.601 3.33201 26.3397 10.5897C27.5078 10.0988 28.6435 9.85023 29.7447 9.85023C32.084 9.85023 33.1162 11.1398 32.8409 13.7123C32.702 15.2713 31.6697 17.5395 29.7447 20.5202C27.8159 23.5029 26.3689 24.9932 25.4072 24.9932C24.1675 24.9932 23.0318 22.6974 21.9985 18.1011C21.6515 16.7527 21.0325 13.3077 20.1387 7.76762C19.3117 2.63364 17.1082 0.235392 13.5298 0.572873C12.0148 0.708594 9.7402 2.058 6.71237 4.62161C4.50939 6.57942 2.27034 8.53463 0 10.4893L2.16319 13.2214C4.22507 11.808 5.4292 11.0982 5.77346 11.0982C7.35315 11.0982 8.82888 13.5261 10.2059 18.3767C11.444 22.8253 12.6805 27.2734 13.9181 31.722C15.772 36.5752 18.0407 39 20.7232 39C25.0502 39 30.342 35.0152 36.596 27.0493C42.6459 19.4204 45.7729 13.4112 45.9776 9.02187Z" fill="#EF484E"/>
</svg>
