<svg width="247" height="152" viewBox="0 0 247 152" fill="none" xmlns="http://www.w3.org/2000/svg">
<g clip-path="url(#clip0_245_109)">
<path d="M63.8865 62.3351H63.6194C61.397 59.5784 57.1285 55.8441 49.1269 55.8441C36.9463 55.8441 28.5 65.6247 28.5 78.2487C28.5 90.8728 36.4134 100.655 49.5717 100.655C55.5284 100.655 61.1299 98.3427 64.2418 93.186H64.4195V99.5875H74.5553V32.3711H63.8865V62.3351ZM51.7059 91.053C43.882 91.053 39.1687 84.9186 39.1687 78.25C39.1687 71.5814 43.8807 65.447 51.7059 65.447C59.5298 65.447 64.2418 71.5814 64.2418 78.25C64.2418 84.9173 59.5298 91.053 51.7059 91.053Z" fill="url(#paint0_linear_245_109)"/>
<path d="M151.722 55.8429C145.765 55.8429 140.164 58.1535 137.052 63.3102H136.874V56.9087H126.879V49.1743C126.879 44.4623 127.768 40.3714 133.725 40.3714C135.237 40.3714 136.659 40.6385 138.171 40.9938L138.882 31.9251C136.659 31.4804 134.437 31.3027 132.125 31.3027C118.877 31.3027 116.21 39.0385 116.21 50.8638V56.9087H102.653L86.2039 74.6027V32.3699H75.5352V99.5863H86.2039V77.8028H86.3815L103.364 99.5863H121.579C121.334 97.8968 121.004 96.082 120.77 94.4002C120.39 92.6327 120.738 91.8429 122.586 91.4531C122.617 91.4467 122.652 91.4237 122.675 91.4429C122.714 91.7112 122.802 91.9822 122.967 92.2045C123.18 92.6531 122.673 93.2742 123.165 93.6538C123.666 93.9835 124.613 94.0436 124.929 93.4404C124.704 93.6717 124.324 93.7867 124.097 93.5554C123.853 93.8378 123.41 93.6078 123.266 93.3305C123.137 92.4665 123.672 91.5809 123.427 90.7016C123.276 91.1387 123.35 91.6218 123.18 92.0537C122.149 90.8 124.052 89.9987 124.843 89.3188C124.168 89.6664 123.442 89.9732 122.907 90.5329C123.097 87.0299 121.721 87.0798 125.308 85.2433C123.128 85.8503 123.265 87.1207 123.298 84.3615C123.174 84.7078 123.16 85.0861 123.111 85.4439C122.963 85.3353 122.835 85.1704 122.752 84.9992C122.491 83.7058 124.638 83.6189 125.338 82.9199C124.407 83.2918 123.378 83.532 122.629 84.2375C122.324 79.7249 121.596 80.3166 125.662 77.96C124.608 78.4622 123.501 78.8725 122.548 79.5613C122.357 78.8379 122.509 78.0903 122.581 77.3619C122.42 77.62 122.319 77.8884 122.283 78.1823C120.992 77.0628 124.987 75.8845 125.654 75.3656C125.985 75.8781 126.168 76.6002 126.394 77.2034C126.472 76.5235 126.046 75.9637 125.909 75.3439C125.901 75.1854 126.472 74.8404 126.478 75.0768C126.61 75.7235 126.655 76.3855 126.702 77.0424C126.832 76.8979 126.748 76.1452 126.962 76.4736C127.449 78.0954 126.843 79.8603 126.927 81.5281C126.934 81.8962 126.591 82.1314 126.325 82.3282C125.947 82.7397 125.985 83.8758 125.85 84.4599C126.006 84.1557 126.12 83.8477 126.189 83.5154C126.909 84.479 125.845 86.4842 125.858 87.7073C125.832 88.2785 125.531 88.7233 125.318 89.2166C125.23 89.6716 125.065 90.1061 124.938 90.5508C124.915 90.717 124.693 91.2678 124.925 91.3023C126.268 91.2997 127.917 91.9336 127.615 93.5592C127.446 95.2104 127.177 96.3133 126.961 98.1076C126.903 98.6163 126.83 99.0457 126.741 99.5863V119.858H137.41V94.1624H137.677C139.899 96.9191 144.166 100.653 152.169 100.653C164.35 100.653 172.796 90.8729 172.796 78.2475C172.796 65.6221 164.88 55.8429 151.722 55.8429ZM116.21 98.0424L98.0292 76.2922L107.775 65.9787H116.21V98.0424ZM123.357 69.3897C123.721 69.506 124.095 69.2721 124.199 68.913C123.009 70.0389 122.33 67.6452 122.672 66.7532C123.087 65.4739 124.672 66.1206 124.742 67.2669C124.776 68.1015 124.351 68.9552 124.544 69.7744C123.523 70.4351 122.528 71.1546 121.721 72.0722C120.549 69.1124 123.691 71.4447 123.357 69.3897ZM128.349 66.9577C128.297 68.6382 128.3 70.3367 128.24 72.0211C128.392 73.8474 127.956 74.0097 126.417 74.7854C124.86 75.5752 123.159 76.1771 121.864 77.3938C121.642 76.0851 121.201 74.8174 121.096 73.4895C122.479 70.4031 126.178 69.2862 128.349 66.8503V66.9577ZM149.588 91.0505C141.764 91.0505 137.052 84.9161 137.052 78.2475C137.052 71.5789 141.764 65.4445 149.588 65.4445C157.413 65.4445 162.125 71.5789 162.125 78.2475C162.125 84.9161 157.413 91.0505 149.588 91.0505Z" fill="url(#paint1_linear_245_109)"/>
<path d="M67.9021 116.45H64.4336V106.002H67.9021C70.5143 106.002 73.3924 107.742 73.3924 111.226C73.3911 114.709 70.5143 116.45 67.9021 116.45ZM67.5621 106.977H65.4956V115.477H67.5621C70.7495 115.477 72.2396 113.381 72.2396 111.226C72.2409 109.073 70.7507 106.977 67.5621 106.977ZM75.0998 113.263C75.2174 114.65 76.2653 115.742 77.6379 115.742C78.6705 115.742 79.468 115.167 79.8514 114.548L80.6041 115.167C79.7926 116.2 78.774 116.628 77.6379 116.628C75.5867 116.628 74.0672 115.078 74.0672 112.997C74.0672 110.917 75.5867 109.367 77.5497 109.367C79.6456 109.382 80.8546 110.931 80.8546 112.82V113.262H75.0998V113.263ZM77.5497 110.252C76.2807 110.252 75.1292 111.33 75.1292 112.466H79.7926C79.7913 111.153 78.9504 110.252 77.5497 110.252ZM86.8599 116.45C86.8152 116.081 86.8152 115.712 86.8152 115.344H86.7858C86.3577 116.096 85.3838 116.628 84.4688 116.628C82.7128 116.628 81.8719 115.639 81.8719 113.928V109.544H82.8457V113.367C82.8457 114.902 83.2739 115.742 84.7193 115.742C84.9263 115.742 86.8152 115.61 86.8152 113.087V109.544H87.789V114.931C87.789 115.299 87.8338 115.95 87.8632 116.45H86.8599ZM91.9259 115.742C92.2659 115.742 92.6339 115.639 92.9292 115.477L92.9739 116.376C92.6199 116.539 92.147 116.627 91.6601 116.627C90.9227 116.627 89.9489 116.302 89.9489 114.783V110.43H88.4881V109.544H89.9489V107.597H90.9227V109.544H92.9151V110.43H90.9227V114.503C90.9227 115.535 91.3214 115.742 91.9259 115.742ZM96.0526 110.252C95.374 110.252 94.6212 110.547 94.6212 111.285C94.6212 111.934 95.0788 112.17 95.9785 112.376L96.9676 112.613C97.9261 112.834 98.6495 113.528 98.6495 114.502C98.6495 116.007 97.3063 116.627 95.9644 116.627C94.9165 116.627 93.958 116.258 93.3075 115.284L94.1484 114.709C94.5471 115.328 95.1516 115.741 95.9644 115.741C96.7619 115.741 97.5875 115.387 97.5875 114.59C97.5875 113.896 96.997 113.659 96.2737 113.483L95.3292 113.262C94.8577 113.143 93.5579 112.76 93.5579 111.446C93.5579 110.014 94.8117 109.365 96.1114 109.365C97.0712 109.365 97.9709 109.705 98.4131 110.605L97.5427 111.18C97.2475 110.622 96.7606 110.252 96.0526 110.252ZM102.814 110.252C101.207 110.223 100.218 111.418 100.218 112.997C100.218 114.577 101.207 115.772 102.814 115.742C103.581 115.742 104.216 115.33 104.541 114.827L105.339 115.432C104.66 116.229 103.745 116.613 102.814 116.627C100.556 116.656 99.1556 115.077 99.1556 112.996C99.1556 110.915 100.558 109.336 102.814 109.365C103.745 109.381 104.66 109.764 105.339 110.56L104.541 111.165C104.216 110.666 103.581 110.252 102.814 110.252ZM110.913 116.45V112.628C110.913 111.093 110.485 110.252 109.04 110.252C108.833 110.252 106.944 110.385 106.944 112.908V116.45H105.97V105.294H106.944V110.65H106.973C107.401 109.897 108.375 109.365 109.29 109.365C111.046 109.365 111.887 110.354 111.887 112.066V116.449H110.913V116.45ZM114.039 113.263C114.157 114.65 115.205 115.742 116.577 115.742C117.61 115.742 118.407 115.167 118.791 114.548L119.544 115.167C118.732 116.2 117.713 116.628 116.577 116.628C114.526 116.628 113.007 115.078 113.007 112.997C113.007 110.917 114.526 109.367 116.489 109.367C118.585 109.382 119.794 110.931 119.794 112.82V113.262H114.039V113.263ZM116.489 110.252C115.22 110.252 114.069 111.33 114.069 112.466H118.732C118.732 111.153 117.89 110.252 116.489 110.252ZM124.565 110.414C124.447 110.37 124.27 110.34 124.004 110.34C122.528 110.34 121.864 111.625 121.864 112.554V116.45H120.891V111.699C120.891 111.079 120.861 110.547 120.832 109.544H121.792V110.829H121.821C122.101 110.091 122.824 109.368 124.034 109.368C124.314 109.368 124.551 109.397 124.758 109.456L124.565 110.414ZM150.155 116.45H147.543L143.013 111.314H142.909V116.45H141.05V106.002H142.909V110.429H142.997L147.321 106.002H149.83L144.945 110.827L150.155 116.45ZM154.791 116.45V115.314H154.761C154.437 116.022 153.772 116.628 152.591 116.628C150.687 116.628 150.008 115.285 150.008 113.838V109.367H151.78V112.953C151.78 113.735 151.839 115.033 153.078 115.033C154.244 115.033 154.701 114.177 154.701 113.232V109.367H156.473V116.45H154.791ZM161.513 110.872C159.845 110.872 159.609 112.274 159.609 112.657V116.45H157.838V109.367H159.609V110.489H159.638C160.022 109.677 160.804 109.19 161.734 109.19C161.955 109.19 162.162 109.235 162.368 109.294V111.006C162.074 110.931 161.793 110.872 161.513 110.872ZM168.686 116.45H162.578V114.812L166.369 110.813V110.784H162.754V109.367H168.509V110.976L164.672 115.033H168.686V116.45ZM174.826 107.597C174.472 107.597 174.118 107.301 174.118 106.888C174.118 106.476 174.472 106.18 174.826 106.18C175.18 106.18 175.534 106.476 175.534 106.888C175.534 107.301 175.18 107.597 174.826 107.597ZM172.568 106.003C171.49 106.003 171.313 106.77 171.313 107.774V109.545H172.951V110.431H171.313V116.452H170.339V110.43H168.878V109.544H170.339V107.655C170.339 105.825 171.254 105.117 172.656 105.117C172.936 105.117 173.217 105.162 173.497 105.221L173.319 106.106C173.084 106.046 172.818 106.003 172.568 106.003ZM175.313 116.45H174.339V109.544H175.313V116.45ZM176.958 116.45V105.294H177.932V116.45H176.958ZM188.793 116.45V112.421C188.793 111.019 188.394 110.252 187.053 110.252C185.606 110.252 185.105 111.492 185.105 112.776V116.45H184.131V112.421C184.131 111.019 183.732 110.252 182.39 110.252C182.154 110.252 180.443 110.385 180.443 112.908V116.45H179.469V111.079C179.469 110.563 179.424 110.06 179.395 109.544H180.443V110.592H180.472C180.945 109.795 181.874 109.367 182.701 109.367C183.454 109.367 184.442 109.618 184.9 110.798C185.299 109.912 186.244 109.367 187.173 109.367C188.929 109.367 189.77 110.356 189.77 112.067V116.45H188.793ZM194.965 116.628C194.05 116.628 192.913 116.229 192.28 115.3H192.25V120.701H191.276V109.544H192.25V110.696H192.28C192.913 109.765 194.051 109.368 194.965 109.368C197.119 109.368 198.64 110.918 198.64 112.999C198.64 115.078 197.119 116.628 194.965 116.628ZM194.965 110.252C193.371 110.252 192.205 111.447 192.205 112.997C192.205 114.548 193.371 115.742 194.965 115.742C196.574 115.742 197.577 114.548 197.577 112.997C197.577 111.447 196.574 110.252 194.965 110.252ZM203.365 110.414C203.247 110.37 203.07 110.34 202.804 110.34C201.328 110.34 200.665 111.625 200.665 112.554V116.45H199.691V111.699C199.691 111.079 199.661 110.547 199.632 109.544H200.592V110.829H200.621C200.901 110.091 201.624 109.368 202.835 109.368C203.114 109.368 203.351 109.397 203.558 109.456L203.365 110.414ZM204.335 113.263C204.454 114.65 205.501 115.742 206.873 115.742C207.906 115.742 208.703 115.167 209.087 114.548L209.839 115.167C209.028 116.2 208.009 116.628 206.873 116.628C204.822 116.628 203.302 115.078 203.302 112.997C203.302 110.917 204.822 109.367 206.785 109.367C208.881 109.382 210.09 110.931 210.09 112.82V113.262H204.335V113.263ZM206.785 110.252C205.516 110.252 204.364 111.33 204.364 112.466H209.028C209.028 111.153 208.187 110.252 206.785 110.252ZM211.719 107.597C211.365 107.597 211.011 107.301 211.011 106.888C211.011 106.476 211.365 106.18 211.719 106.18C212.073 106.18 212.427 106.476 212.427 106.888C212.429 107.301 212.073 107.597 211.719 107.597ZM212.206 116.45H211.232V109.544H212.206V116.45ZM215.909 110.252C215.23 110.252 214.477 110.547 214.477 111.285C214.477 111.934 214.935 112.17 215.836 112.376L216.824 112.613C217.783 112.834 218.507 113.528 218.507 114.502C218.507 116.007 217.164 116.627 215.82 116.627C214.772 116.627 213.814 116.258 213.163 115.284L214.004 114.709C214.403 115.328 215.008 115.741 215.819 115.741C216.617 115.741 217.442 115.387 217.442 114.59C217.442 113.896 216.852 113.659 216.128 113.483L215.184 113.262C214.711 113.143 213.413 112.76 213.413 111.446C213.413 110.014 214.666 109.365 215.965 109.365C216.925 109.365 217.824 109.705 218.268 110.605L217.397 111.18C217.103 110.622 216.617 110.252 215.909 110.252Z" fill="#C66F34"/>
</g>
<defs>
<linearGradient id="paint0_linear_245_109" x1="51.5278" y1="119.186" x2="51.5278" y2="31.9698" gradientUnits="userSpaceOnUse">
<stop stop-color="#903D18"/>
<stop offset="0.04" stop-color="#903D18"/>
<stop offset="0.19" stop-color="#FFCB62"/>
<stop offset="0.46" stop-color="#F6A754"/>
<stop offset="0.65" stop-color="#FFC175"/>
<stop offset="0.84" stop-color="#FFCF8D"/>
<stop offset="0.98" stop-color="#FFB87E"/>
<stop offset="1" stop-color="#FFB87E"/>
</linearGradient>
<linearGradient id="paint1_linear_245_109" x1="124.164" y1="119.859" x2="124.164" y2="31.3034" gradientUnits="userSpaceOnUse">
<stop stop-color="#903D18"/>
<stop offset="0.04" stop-color="#903D18"/>
<stop offset="0.19" stop-color="#FFCB62"/>
<stop offset="0.46" stop-color="#F6A754"/>
<stop offset="0.65" stop-color="#FFC175"/>
<stop offset="0.84" stop-color="#FFCF8D"/>
<stop offset="0.98" stop-color="#FFB87E"/>
<stop offset="1" stop-color="#FFB87E"/>
</linearGradient>
<clipPath id="clip0_245_109">
<rect width="247" height="152" fill="white"/>
</clipPath>
</defs>
</svg>
